HIERARCHY
ROOT hip
{
  OFFSET 0.00112043 5.09927 -9.65472
  CHANNELS 6 Xposition Yposition Zposition Zrotation Xrotation Yrotation
  JOINT abdomen
  {
    OFFSET 0 -1.186 -1.5018
    CHANNELS 3 Zrotation Xrotation Yrotation
    JOINT abdomen2
    {
      OFFSET 0 9.964 0.2134
      CHANNELS 3 Zrotation Xrotation Yrotation
      JOINT chest
      {
        OFFSET 0 13.134 -3.2573
        CHANNELS 3 Zrotation Xrotation Yrotation
        JOINT neck
        {
          OFFSET 0 20.686 -1.6905
          CHANNELS 3 Zrotation Xrotation Yrotation
          JOINT head
          {
            OFFSET 0 7.238 -0.1237
            CHANNELS 3 Zrotation Xrotation Yrotation
            End Site
            {
              OFFSET 0 0 0
            }
          }
        }
        JOINT lCollar
        {
          OFFSET 1.7069 20.075 5.0056
          CHANNELS 3 Zrotation Xrotation Yrotation
          JOINT lShldr
          {
            OFFSET 13.6458 -0.047 -4.849
            CHANNELS 3 Zrotation Xrotation Yrotation
            JOINT lForeArm
            {
              OFFSET 28.3255 -0.9759 2.2888
              CHANNELS 3 Zrotation Xrotation Yrotation
              JOINT lHand
              {
                OFFSET 22.1583 -0.53 10.8316
                CHANNELS 3 Zrotation Xrotation Yrotation
                JOINT lThumb1
                {
                  OFFSET 0.786 0.112 2.5817
                  CHANNELS 3 Zrotation Xrotation Yrotation
                  JOINT lThumb2
                  {
                    OFFSET 0.3601 -0.878 4.2331
                    CHANNELS 3 Zrotation Xrotation Yrotation
                    JOINT lThumb2_End
                    {
                      OFFSET 1.8127 -1.216 2.2227
                      CHANNELS 3 Zrotation Xrotation Yrotation
                      End Site
                      {
                        OFFSET 0.0181 -0.0122 0.0222
                      }
                    }
                  }
                }
                JOINT lCarpal1
                {
                  OFFSET 0.9571 1.114 1.7695
                  CHANNELS 3 Zrotation Xrotation Yrotation
                  JOINT lIndex1
                  {
                    OFFSET 4.1246 0.487 4.1451
                    CHANNELS 3 Zrotation Xrotation Yrotation
                    JOINT lIndex2
                    {
                      OFFSET 3.4052 -1.454 2.7682
                      CHANNELS 3 Zrotation Xrotation Yrotation
                      JOINT lIndex2_End
                      {
                        OFFSET 1.4531 -1.795 1.2713
                        CHANNELS 3 Zrotation Xrotation Yrotation
                        End Site
                        {
                          OFFSET 0.0145 -0.0179 0.0127
                        }
                      }
                    }
                  }
                  JOINT lMid1
                  {
                    OFFSET 5.6954 0.21 2.1184
                    CHANNELS 3 Zrotation Xrotation Yrotation
                    JOINT lMid2
                    {
                      OFFSET 3.9766 -1.54 2.3863
                      CHANNELS 3 Zrotation Xrotation Yrotation
                      JOINT lMid2_End
                      {
                        OFFSET 1.4042 -1.926 1.125
                        CHANNELS 3 Zrotation Xrotation Yrotation
                        End Site
                        {
                          OFFSET 0.014 -0.0193 0.0113
                        }
                      }
                    }
                  }
                }
                JOINT lCarpal2
                {
                  OFFSET 2.0956 0.66 -0.3894
                  CHANNELS 3 Zrotation Xrotation Yrotation
                  JOINT lRing1
                  {
                    OFFSET 5.0395 -0.09 2.4971
                    CHANNELS 3 Zrotation Xrotation Yrotation
                    JOINT lRing2
                    {
                      OFFSET 3.7921 -1.552 1.4806
                      CHANNELS 3 Zrotation Xrotation Yrotation
                      JOINT lRing2_End
                      {
                        OFFSET 1.4655 -1.808 0.9609
                        CHANNELS 3 Zrotation Xrotation Yrotation
                        End Site
                        {
                          OFFSET 0.0147 -0.0181 0.0096
                        }
                      }
                    }
                  }
                  JOINT lPinky1
                  {
                    OFFSET 4.9141 -1.269 0.3591
                    CHANNELS 3 Zrotation Xrotation Yrotation
                    JOINT lPinky2
                    {
                      OFFSET 3.1477 -1.685 0.8462
                      CHANNELS 3 Zrotation Xrotation Yrotation
                      JOINT lPinky2_End
                      {
                        OFFSET 0.8055 -1.585 0.7955
                        CHANNELS 3 Zrotation Xrotation Yrotation
                        End Site
                        {
                          OFFSET 0.0081 -0.0158 0.008
                        }
                      }
                    }
                  }
                }
              }
            }
          }
        }
        JOINT rCollar
        {
          OFFSET -1.7069 20.075 5.0056
          CHANNELS 3 Zrotation Xrotation Yrotation
          JOINT rShldr
          {
            OFFSET -13.6458 -0.047 -4.849
            CHANNELS 3 Zrotation Xrotation Yrotation
            JOINT rForeArm
            {
              OFFSET -28.3255 -0.9759 2.2888
              CHANNELS 3 Zrotation Xrotation Yrotation
              JOINT rHand
              {
                OFFSET -22.1583 -0.53 10.8316
                CHANNELS 3 Zrotation Xrotation Yrotation
                JOINT rThumb1
                {
                  OFFSET -0.786 0.112 2.5817
                  CHANNELS 3 Zrotation Xrotation Yrotation
                  JOINT rThumb2
                  {
                    OFFSET -0.3601 -0.878 4.2331
                    CHANNELS 3 Zrotation Xrotation Yrotation
                    JOINT rThumb2_End
                    {
                      OFFSET -1.8127 -1.216 2.2227
                      CHANNELS 3 Zrotation Xrotation Yrotation
                      End Site
                      {
                        OFFSET -0.0181 -0.0122 0.0222
                      }
                    }
                  }
                }
                JOINT rCarpal1
                {
                  OFFSET -0.9571 1.114 1.7695
                  CHANNELS 3 Zrotation Xrotation Yrotation
                  JOINT rIndex1
                  {
                    OFFSET -4.1246 0.487 4.1451
                    CHANNELS 3 Zrotation Xrotation Yrotation
                    JOINT rIndex2
                    {
                      OFFSET -3.4052 -1.454 2.7682
                      CHANNELS 3 Zrotation Xrotation Yrotation
                      JOINT rIndex2_End
                      {
                        OFFSET -1.4531 -1.795 1.2713
                        CHANNELS 3 Zrotation Xrotation Yrotation
                        End Site
                        {
                          OFFSET -0.0145 -0.018 0.0127
                        }
                      }
                    }
                  }
                  JOINT rMid1
                  {
                    OFFSET -5.6954 0.21 2.1184
                    CHANNELS 3 Zrotation Xrotation Yrotation
                    JOINT rMid2
                    {
                      OFFSET -3.9766 -1.54 2.3863
                      CHANNELS 3 Zrotation Xrotation Yrotation
                      JOINT rMid2_End
                      {
                        OFFSET -1.4042 -1.926 1.125
                        CHANNELS 3 Zrotation Xrotation Yrotation
                        End Site
                        {
                          OFFSET -0.014 -0.0193 0.0113
                        }
                      }
                    }
                  }
                }
                JOINT rCarpal2
                {
                  OFFSET -2.0956 0.66 -0.3894
                  CHANNELS 3 Zrotation Xrotation Yrotation
                  JOINT rRing1
                  {
                    OFFSET -5.0395 -0.09 2.4971
                    CHANNELS 3 Zrotation Xrotation Yrotation
                    JOINT rRing2
                    {
                      OFFSET -3.7921 -1.552 1.4806
                      CHANNELS 3 Zrotation Xrotation Yrotation
                      JOINT rRing2_End
                      {
                        OFFSET -1.4655 -1.808 0.9609
                        CHANNELS 3 Zrotation Xrotation Yrotation
                        End Site
                        {
                          OFFSET -0.0147 -0.0181 0.0096
                        }
                      }
                    }
                  }
                  JOINT rPinky1
                  {
                    OFFSET -4.9141 -1.269 0.3592
                    CHANNELS 3 Zrotation Xrotation Yrotation
                    JOINT rPinky2
                    {
                      OFFSET -3.1477 -1.685 0.8462
                      CHANNELS 3 Zrotation Xrotation Yrotation
                      JOINT rPinky2_End
                      {
                        OFFSET -0.8055 -1.585 0.7955
                        CHANNELS 3 Zrotation Xrotation Yrotation
                        End Site
                        {
                          OFFSET -0.0081 -0.0158 0.008
                        }
                      }
                    }
                  }
                }
              }
            }
          }
        }
      }
    }
  }
  JOINT lThigh
  {
    OFFSET 8.367 -8.2066 0.5982
    CHANNELS 3 Zrotation Xrotation Yrotation
    JOINT lShin
    {
      OFFSET 2.1923 -43.463 -0.4932
      CHANNELS 3 Zrotation Xrotation Yrotation
      JOINT lFoot
      {
        OFFSET 0.7333 -45.8593 -2.6451
        CHANNELS 3 Zrotation Xrotation Yrotation
        End Site
        {
          OFFSET 2.6618 -4.2699 12.3931
        }
      }
    }
  }
  JOINT rThigh
  {
    OFFSET -8.367 -8.2066 0.5982
    CHANNELS 3 Zrotation Xrotation Yrotation
    JOINT rShin
    {
      OFFSET -2.1923 -43.463 -0.4931
      CHANNELS 3 Zrotation Xrotation Yrotation
      JOINT rFoot
      {
        OFFSET -0.7333 -45.8593 -2.6451
        CHANNELS 3 Zrotation Xrotation Yrotation
        End Site
        {
          OFFSET -2.6618 -4.2699 12.3931
        }
      }
    }
  }
}
MOTION
Frames:	4
Frame Time:	0.0333333
42.1817 90.7073 28.7852 0 20.0231 -0 -0.233039 -1.93113 -0.168978 -0.472181 -3.86154 -0.346113 -0.472181 -3.86154 -0.346113 20.9575 17.0244 -6.40189 -10.1211 8.73595 1.55026 -24.1944 15.0434 20.2114 -58.303 -0.296674 10.1035 -7.04691 3.72461 21.3829 -3.29964 7.15079 -10.3215 8.82781e-032 -1.59028e-015 3.18055e-015 -7.95139e-016 0 3.18055e-015 -7.95139e-016 -7.95139e-016 3.18055e-015 -0 0 3.18055e-015 5.56597e-015 -2.38542e-015 2.22639e-014 -0 -7.95139e-016 -0 -0 -7.95139e-016 -0 5.56597e-015 -2.38542e-015 2.22639e-014 -0 -7.95139e-016 -0 -0 -7.95139e-016 -0 -0 0 3.18055e-015 5.56597e-015 -2.38542e-015 2.22639e-014 -0 -7.95139e-016 -0 -0 -7.95139e-016 -0 5.56597e-015 -2.38542e-015 2.22639e-014 -0 -7.95139e-016 -0 -0 -7.95139e-016 -0 29.608 11.9086 -21.7202 53.2336 0.20532 -9.4024 2.9294 4.19164 -21.3328 4.96581 7.10986 9.26171 7.95139e-016 3.18055e-015 3.18055e-015 -7.95139e-016 5.56597e-015 1.27222e-014 -1.59028e-015 5.56597e-015 3.18055e-015 7.95139e-016 0 3.18055e-015 1.59028e-015 5.56597e-015 1.90833e-014 -7.95139e-016 3.97569e-015 3.18055e-015 0 3.97569e-015 -0 1.59028e-015 5.56597e-015 1.90833e-014 -7.95139e-016 3.97569e-015 3.18055e-015 0 3.97569e-015 -0 7.95139e-016 0 3.18055e-015 1.59028e-015 5.56597e-015 1.90833e-014 -7.95139e-016 3.97569e-015 3.18055e-015 0 3.97569e-015 -0 1.59028e-015 5.56597e-015 1.90833e-014 -7.95139e-016 3.97569e-015 3.18055e-015 0 3.97569e-015 -0 2.84946 -28.8803 -5.80717 -12.49 9.53609 3.77997 -2.58984 -3.81416 18.3016 1.92405 -23.31 -10.4794 5.13099 1.533 -0.167184 2.76944 -3.36309 -17.9804 
42.1831 90.7389 28.7612 0 19.547 -0 -0.233648 -1.82584 -0.168716 -0.473039 -3.65096 -0.345147 -0.473039 -3.65096 -0.345147 20.8914 16.4494 -6.17233 -10.1035 8.06852 1.42998 -23.9803 14.9038 19.9593 -58.4944 -0.316961 10.0901 -7.04693 3.72459 21.3829 -3.26816 7.03598 -10.143 7.95139e-015 -9.54166e-015 6.36111e-015 4.77083e-015 -1.03368e-014 3.18055e-015 4.77083e-015 -1.11319e-014 -0 1.59028e-015 0 6.36111e-015 8.74653e-015 -1.03368e-014 1.27222e-014 4.77083e-015 -9.54166e-015 -6.36111e-015 5.56597e-015 -7.95139e-015 -3.18055e-015 8.74653e-015 -1.03368e-014 1.27222e-014 4.77083e-015 -9.54166e-015 -6.36111e-015 5.56597e-015 -7.95139e-015 -3.18055e-015 1.59028e-015 0 6.36111e-015 8.74653e-015 -1.03368e-014 1.27222e-014 4.77083e-015 -9.54166e-015 -6.36111e-015 5.56597e-015 -7.95139e-015 -3.18055e-015 8.74653e-015 -1.03368e-014 1.27222e-014 4.77083e-015 -9.54166e-015 -6.36111e-015 5.56597e-015 -7.95139e-015 -3.18055e-015 29.3943 11.7747 -21.4566 53.4451 0.180922 -9.39652 2.9294 4.19165 -21.3328 4.90765 7.00741 9.08722 -1.59028e-015 4.77083e-015 9.54166e-015 -1.59028e-015 4.77083e-015 9.54166e-015 -1.59028e-015 3.18055e-015 1.27222e-014 0 2.38542e-015 -0 -1.05934e-030 6.36111e-015 9.54166e-015 -2.38542e-015 3.97569e-015 9.54166e-015 -7.95139e-016 3.97569e-015 -0 -1.05934e-030 6.36111e-015 9.54166e-015 -2.38542e-015 3.97569e-015 9.54166e-015 -7.95139e-016 3.97569e-015 -0 0 2.38542e-015 -0 -1.05934e-030 6.36111e-015 9.54166e-015 -2.38542e-015 3.97569e-015 9.54166e-015 -7.95139e-016 3.97569e-015 -0 -1.05934e-030 6.36111e-015 9.54166e-015 -2.38542e-015 3.97569e-015 9.54166e-015 -7.95139e-016 3.97569e-015 -0 2.80673 -28.3238 -5.86844 -12.4911 9.54182 3.78081 -2.59066 -3.81489 18.3016 1.91633 -22.8074 -10.4656 5.13105 1.53852 -0.16696 2.7708 -3.36877 -17.9803 
42.1844 90.7703 28.7371 0 19.071 -0 -0.234258 -1.72056 -0.168459 -0.4739 -3.44042 -0.344191 -0.4739 -3.44042 -0.344191 20.8287 15.8749 -5.94426 -10.0873 7.40096 1.31006 -23.767 14.7633 19.7078 -58.6858 -0.337186 10.0767 -7.0469 3.7246 21.3828 -3.23636 6.92128 -9.9644 -7.95139e-016 0 6.36111e-015 -0 0 3.18055e-015 -7.95139e-016 -7.95139e-016 -3.18055e-015 -7.95139e-016 7.95139e-016 6.36111e-015 7.95139e-016 -1.59028e-015 3.18055e-015 -7.95139e-016 0 -3.18055e-015 7.95139e-016 0 -0 7.95139e-016 -1.59028e-015 3.18055e-015 -7.95139e-016 0 -3.18055e-015 7.95139e-016 0 -0 -7.95139e-016 7.95139e-016 6.36111e-015 7.95139e-016 -1.59028e-015 3.18055e-015 -7.95139e-016 0 -3.18055e-015 7.95139e-016 0 -0 7.95139e-016 -1.59028e-015 3.18055e-015 -7.95139e-016 0 -3.18055e-015 7.95139e-016 0 -0 29.1813 11.6399 -21.1938 53.6566 0.156544 -9.39056 2.92941 4.19164 -21.3328 4.84921 6.90514 8.91269 7.95139e-016 2.38542e-015 -3.18055e-015 -2.96143e-007 -1.19392e-007 -4.32481e-006 -7.95139e-016 7.95139e-016 6.36111e-015 8.82781e-032 1.59028e-015 -3.18055e-015 3.18055e-015 0 3.18055e-015 -2.96143e-007 -1.19392e-007 -4.32481e-006 -0 -7.95139e-016 -0 3.18055e-015 0 3.18055e-015 -2.96143e-007 -1.19392e-007 -4.32481e-006 -0 -7.95139e-016 -0 8.82781e-032 1.59028e-015 -3.18055e-015 3.18055e-015 0 3.18055e-015 -2.96143e-007 -1.19392e-007 -4.32481e-006 -0 -7.95139e-016 -0 3.18055e-015 0 3.18055e-015 -2.96143e-007 -1.19392e-007 -4.32481e-006 -0 -7.95139e-016 -0 2.76488 -27.7672 -5.92895 -12.4923 9.54747 3.78164 -2.59144 -3.81561 18.3016 1.90885 -22.3033 -10.4516 5.13108 1.54082 -0.166637 2.77214 -3.3729 -17.9802 
42.1858 90.8014 28.7127 0 18.595 -0 -0.234868 -1.61532 -0.168198 -0.474765 -3.22995 -0.343226 -0.474765 -3.22996 -0.343226 20.7668 15.2986 -5.7171 -10.0726 6.73327 1.1905 -23.5544 14.622 19.4571 -58.8771 -0.357391 10.0632 -7.04688 3.7246 21.3828 -3.20419 6.80669 -9.78582 1.945e-006 2.20488e-006 2.35217e-006 7.95139e-016 7.95139e-016 -0 -1.59028e-015 0 -3.18055e-015 -1.59028e-015 0 3.18055e-015 1.945e-006 2.20488e-006 2.35217e-006 -2.38542e-015 7.95139e-016 -0 -1.59028e-015 1.59028e-015 -1.59028e-014 1.945e-006 2.20488e-006 2.35217e-006 -2.38542e-015 7.95139e-016 -0 -1.59028e-015 1.59028e-015 -1.59028e-014 -1.59028e-015 0 3.18055e-015 1.945e-006 2.20488e-006 2.35217e-006 -2.38542e-015 7.95139e-016 -0 -1.59028e-015 1.59028e-015 -1.59028e-014 1.945e-006 2.20488e-006 2.35217e-006 -2.38542e-015 7.95139e-016 -0 -1.59028e-015 1.59028e-015 -1.59028e-014 28.9691 11.5044 -20.9316 53.8681 0.132204 -9.38449 2.9294 4.19164 -21.3328 4.79042 6.80304 8.73809 2.38542e-015 0 6.36111e-015 1.59028e-015 0 1.59028e-014 7.95139e-016 -1.59028e-015 1.27222e-014 7.95139e-016 0 -3.18055e-015 7.95139e-016 1.59028e-015 1.27222e-014 2.38542e-015 7.95139e-016 1.59028e-014 3.18055e-015 1.59028e-015 2.22639e-014 7.95139e-016 1.59028e-015 1.27222e-014 2.38542e-015 7.95139e-016 1.59028e-014 3.18055e-015 1.59028e-015 2.22639e-014 7.95139e-016 0 -3.18055e-015 7.95139e-016 1.59028e-015 1.27222e-014 2.38542e-015 7.95139e-016 1.59028e-014 3.18055e-015 1.59028e-015 2.22639e-014 7.95139e-016 1.59028e-015 1.27222e-014 2.38542e-015 7.95139e-016 1.59028e-014 3.18055e-015 1.59028e-015 2.22639e-014 2.72389 -27.2108 -5.98869 -12.4934 9.55333 3.7825 -2.5922 -3.81642 18.3016 1.90135 -21.7989 -10.4376 5.13112 1.54242 -0.166295 2.77347 -3.37669 -17.9801 
